<?xml version="1.0" standalone="no"?><!DOCTYPE svg PUBLIC "-//W3C//DTD SVG 1.1//EN" "http://www.w3.org/Graphics/SVG/1.1/DTD/svg11.dtd"><svg class="icon" width="16px" height="16.00px" viewBox="0 0 1024 1024" version="1.1" xmlns="http://www.w3.org/2000/svg"><path fill="#00d8d6" d="M704 544H320c-17.6 0-32-14.4-32-32s14.4-32 32-32h384c17.6 0 32 14.4 32 32s-14.4 32-32 32zM512 736c-17.6 0-32-14.4-32-32V320c0-17.6 14.4-32 32-32s32 14.4 32 32v384c0 17.6-14.4 32-32 32zM512 960C265.6 960 64 758.4 64 512S265.6 64 512 64s448 201.6 448 448-201.6 448-448 448z m0-832C300.8 128 128 300.8 128 512s172.8 384 384 384 384-172.8 384-384S723.2 128 512 128z" /></svg>