<?xml version="1.0" standalone="no"?><!DOCTYPE svg PUBLIC "-//W3C//DTD SVG 1.1//EN" "http://www.w3.org/Graphics/SVG/1.1/DTD/svg11.dtd"><svg class="icon" width="16px" height="16.00px" viewBox="0 0 1024 1024" version="1.1" xmlns="http://www.w3.org/2000/svg"><path fill="#00d8d6" d="M981.333333 1024l-170.666667 0c-25.6 0-42.666667-17.066667-42.666667-42.666667s17.066667-42.666667 42.666667-42.666667l170.666667 0c25.6 0 42.666667 17.066667 42.666667 42.666667S1006.933333 1024 981.333333 1024zM981.333333 1024c-25.6 0-42.666667-17.066667-42.666667-42.666667l0-170.666667c0-25.6 17.066667-42.666667 42.666667-42.666667s42.666667 17.066667 42.666667 42.666667l0 170.666667C1024 1006.933333 1006.933333 1024 981.333333 1024zM213.333333 85.333333 42.666667 85.333333C17.066667 85.333333 0 68.266667 0 42.666667s17.066667-42.666667 42.666667-42.666667l170.666667 0c25.6 0 42.666667 17.066667 42.666667 42.666667S238.933333 85.333333 213.333333 85.333333zM42.666667 256C17.066667 256 0 238.933333 0 213.333333L0 42.666667c0-25.6 17.066667-42.666667 42.666667-42.666667s42.666667 17.066667 42.666667 42.666667l0 170.666667C85.333333 238.933333 68.266667 256 42.666667 256zM332.8 375.466667c-12.8 0-21.333333-4.266667-29.866667-12.8L21.333333 81.066667c-17.066667-17.066667-17.066667-42.666667 0-59.733333s42.666667-17.066667 59.733333 0l277.333333 277.333333c17.066667 17.066667 17.066667 42.666667 0 59.733333C354.133333 371.2 341.333333 375.466667 332.8 375.466667zM972.8 1015.466667c-12.8 0-21.333333-4.266667-29.866667-12.8l-277.333333-277.333333c-17.066667-17.066667-17.066667-42.666667 0-59.733333s42.666667-17.066667 59.733333 0l277.333333 277.333333c17.066667 17.066667 17.066667 42.666667 0 59.733333C994.133333 1011.2 981.333333 1015.466667 972.8 1015.466667zM42.666667 1024c-25.6 0-42.666667-17.066667-42.666667-42.666667l0-170.666667c0-25.6 17.066667-42.666667 42.666667-42.666667s42.666667 17.066667 42.666667 42.666667l0 170.666667C85.333333 1006.933333 68.266667 1024 42.666667 1024zM213.333333 1024 42.666667 1024c-25.6 0-42.666667-17.066667-42.666667-42.666667s17.066667-42.666667 42.666667-42.666667l170.666667 0c25.6 0 42.666667 17.066667 42.666667 42.666667S238.933333 1024 213.333333 1024zM981.333333 256c-25.6 0-42.666667-17.066667-42.666667-42.666667L938.666667 42.666667c0-25.6 17.066667-42.666667 42.666667-42.666667s42.666667 17.066667 42.666667 42.666667l0 170.666667C1024 238.933333 1006.933333 256 981.333333 256zM981.333333 85.333333l-170.666667 0c-25.6 0-42.666667-17.066667-42.666667-42.666667s17.066667-42.666667 42.666667-42.666667l170.666667 0c25.6 0 42.666667 17.066667 42.666667 42.666667S1006.933333 85.333333 981.333333 85.333333zM691.2 375.466667c-12.8 0-21.333333-4.266667-29.866667-12.8-17.066667-17.066667-17.066667-42.666667 0-59.733333l277.333333-277.333333c17.066667-17.066667 42.666667-17.066667 59.733333 0s17.066667 42.666667 0 59.733333l-277.333333 277.333333C716.8 371.2 704 375.466667 691.2 375.466667zM51.2 1015.466667c-12.8 0-21.333333-4.266667-29.866667-12.8-17.066667-17.066667-17.066667-42.666667 0-59.733333l277.333333-277.333333c17.066667-17.066667 42.666667-17.066667 59.733333 0s17.066667 42.666667 0 59.733333l-277.333333 277.333333C72.533333 1011.2 64 1015.466667 51.2 1015.466667z" /></svg>