<?xml version="1.0" standalone="no"?><!DOCTYPE svg PUBLIC "-//W3C//DTD SVG 1.1//EN" "http://www.w3.org/Graphics/SVG/1.1/DTD/svg11.dtd"><svg class="icon" width="16px" height="16.00px" viewBox="0 0 1024 1024" version="1.1" xmlns="http://www.w3.org/2000/svg"><path fill="#00d8d6" d="M511.3887 65.8504c-246.359 0-446.7958 200.4357-446.7958 446.7958 0 246.357 200.4357 446.7958 446.7958 446.7958 246.359 0 446.7978-200.4378 446.7978-446.7958C958.1865 266.2871 757.7477 65.8504 511.3887 65.8504zM511.3887 903.593c-215.5715 0-390.9458-175.3764-390.9458-390.9468 0-215.5725 175.3743-390.9468 390.9458-390.9468 215.5715 0 390.9468 175.3743 390.9468 390.9468C902.3355 728.2176 726.9591 903.593 511.3887 903.593zM427.6142 317.1727c-15.4337 0-27.9255 12.5174-27.9255 27.9255V680.195072c0 15.4061 12.4908 27.9255 27.9255 27.9255 15.4081 0 27.9245-12.5204 27.9245-27.9255V345.09824C455.5387 329.6901 443.0223 317.1727 427.6142 317.1727zM595.1621 317.1727c-15.4348 0-27.9245 12.5174-27.9245 27.9255V680.195072c0 15.4061 12.4887 27.9255 27.9245 27.9255 15.4081 0 27.9255-12.5204 27.9255-27.9255V345.09824C623.0876 329.6901 610.5702 317.1727 595.1621 317.1727z" /></svg>