<?xml version="1.0" standalone="no"?><!DOCTYPE svg PUBLIC "-//W3C//DTD SVG 1.1//EN" "http://www.w3.org/Graphics/SVG/1.1/DTD/svg11.dtd"><svg class="icon" width="16px" height="16.00px" viewBox="0 0 1024 1024" version="1.1" xmlns="http://www.w3.org/2000/svg"><path fill="#00d8d6" d="M799.528576 64.021106c-88.311325 0-159.901827 71.590502-159.901827 159.901827 0 14.414291 1.918699 28.378327 5.494131 41.662889L361.396957 398.137743c-27.878954-46.865377-79.024821-78.274738-137.51291-78.274738-88.311325 0-159.901827 71.590502-159.901827 159.901827s71.590502 159.901827 159.901827 159.901827c36.671201 0 70.452585-12.353352 97.42796-33.113165l141.05355 126.150118c-9.379625 20.345374-14.619976 42.992163-14.619976 66.864874 0 88.311325 71.590502 159.901827 159.901827 159.901827s159.901827-71.590502 159.901827-159.901827-71.590502-159.901827-159.901827-159.901827c-41.701774 0-79.669504 15.969717-108.136859 42.11826L362.606505 559.345308c13.472849-23.435759 21.178345-50.608631 21.178345-79.580476 0-7.475252-0.524956-14.827707-1.517563-22.030759l290.856367-135.88483c29.251208 37.703717 74.990948 61.974493 126.405945 61.974493 88.311325 0 159.901827-71.590502 159.901827-159.901827S887.839901 64.021106 799.528576 64.021106zM223.883023 575.705927c-52.986795 0-95.941096-42.954301-95.941096-95.941096 0-52.986795 42.954301-95.941096 95.941096-95.941096s95.941096 42.954301 95.941096 95.941096C319.824119 532.751626 276.869818 575.705927 223.883023 575.705927zM607.647407 703.627389c52.986795 0 95.941096 42.954301 95.941096 95.941096 0 52.986795-42.954301 95.941096-95.941096 95.941096s-95.941096-42.954301-95.941096-95.941096C511.706311 746.58169 554.660612 703.627389 607.647407 703.627389zM799.528576 319.863005c-52.986795 0-95.941096-42.954301-95.941096-95.941096 0-52.986795 42.954301-95.941096 95.941096-95.941096s95.941096 42.954301 95.941096 95.941096C895.469672 276.909727 852.515371 319.863005 799.528576 319.863005z" /></svg>